# xmcd CD database file generated by Grip 2.7
# 
# Track frame offsets:
#       150
#       18830
#       34105
#       69902
#       87615
#       120065
#       138195
#       158245
#       178897
# 
# Disc length: 2712 seconds
# 
# Revision: 3
# Processed by: cddbd v1.4b41PL1 Copyright (c) Steve Scherf et al.
# Submitted via: Grip 2.7
# 
DISCID=690a9609
DTITLE=Pinetop Perkins - Got My Mojo Working
DYEAR=1900
DGENRE=
TTITLE0=Kidney Stew
TTITLE1=Yonder's Wall
TTITLE2=Sunnyland Slim
TTITLE3=Hi-Heel Sneakers
TTITLE4=Whiskey Headed Woman
TTITLE5=For You My Love
TTITLE6=Just Keep On Drinking
TTITLE7=Got My Mojo Working
TTITLE8=Merry Christmas Baby
EXTD=
EXTT0=
EXTT1=
EXTT2=
EXTT3=
EXTT4=
EXTT5=
EXTT6=
EXTT7=
EXTT8=
PLAYORDER=
